<mxfile host="Electron" modified="2024-02-21T17:51:09.657Z" agent="Mozilla/5.0 (Windows NT 10.0; Win64; x64) AppleWebKit/537.36 (KHTML, like Gecko) draw.io/23.1.5 Chrome/120.0.6099.109 Electron/28.1.0 Safari/537.36" etag="R5qnqtqwtS6c5perinY-" version="23.1.5" type="device">
  <diagram name="Page-1" id="2YBvvXClWsGukQMizWep">
    <mxGraphModel dx="782" dy="584" grid="1" gridSize="10" guides="1" tooltips="1" connect="1" arrows="1" fold="1" page="1" pageScale="1" pageWidth="850" pageHeight="1100" math="0" shadow="0">
      <root>
        <mxCell id="0" />
        <mxCell id="1" parent="0" />
        <mxCell id="NxfLgQx-L04dx31BgYfz-1" value="Vendor" style="rounded=0;whiteSpace=wrap;html=1;" parent="1" vertex="1">
          <mxGeometry x="600" y="80" width="120" height="80" as="geometry" />
        </mxCell>
        <mxCell id="NxfLgQx-L04dx31BgYfz-2" value="" style="endArrow=none;html=1;rounded=0;entryX=0.5;entryY=1;entryDx=0;entryDy=0;exitX=0.5;exitY=0;exitDx=0;exitDy=0;" parent="1" source="NxfLgQx-L04dx31BgYfz-8" target="NxfLgQx-L04dx31BgYfz-1" edge="1">
          <mxGeometry width="50" height="50" relative="1" as="geometry">
            <mxPoint x="660" y="390" as="sourcePoint" />
            <mxPoint x="420" y="140" as="targetPoint" />
            <Array as="points" />
          </mxGeometry>
        </mxCell>
        <mxCell id="NxfLgQx-L04dx31BgYfz-3" value="" style="endArrow=none;html=1;rounded=0;entryX=0;entryY=0.5;entryDx=0;entryDy=0;exitX=1;exitY=0.5;exitDx=0;exitDy=0;" parent="1" source="NxfLgQx-L04dx31BgYfz-4" target="NxfLgQx-L04dx31BgYfz-1" edge="1">
          <mxGeometry width="50" height="50" relative="1" as="geometry">
            <mxPoint x="140" y="99.95000000000005" as="sourcePoint" />
            <mxPoint x="290" y="90" as="targetPoint" />
          </mxGeometry>
        </mxCell>
        <object label="Customer" id="NxfLgQx-L04dx31BgYfz-4">
          <mxCell style="rounded=0;whiteSpace=wrap;html=1;" parent="1" vertex="1">
            <mxGeometry x="40" y="80" width="120" height="80" as="geometry" />
          </mxCell>
        </object>
        <mxCell id="NxfLgQx-L04dx31BgYfz-6" value="Courier" style="rounded=0;whiteSpace=wrap;html=1;" parent="1" vertex="1">
          <mxGeometry x="40" y="400" width="120" height="80" as="geometry" />
        </mxCell>
        <mxCell id="NxfLgQx-L04dx31BgYfz-7" value="&lt;font style=&quot;font-size: 22px;&quot;&gt;2,Assigns&lt;/font&gt;" style="endArrow=none;html=1;rounded=0;exitX=1;exitY=0.5;exitDx=0;exitDy=0;" parent="1" source="NxfLgQx-L04dx31BgYfz-6" target="NxfLgQx-L04dx31BgYfz-8" edge="1">
          <mxGeometry width="50" height="50" relative="1" as="geometry">
            <mxPoint x="400" y="310" as="sourcePoint" />
            <mxPoint x="320" y="360" as="targetPoint" />
          </mxGeometry>
        </mxCell>
        <mxCell id="NxfLgQx-L04dx31BgYfz-8" value="Manager" style="rounded=0;whiteSpace=wrap;html=1;" parent="1" vertex="1">
          <mxGeometry x="600" y="400" width="120" height="80" as="geometry" />
        </mxCell>
        <mxCell id="NxfLgQx-L04dx31BgYfz-9" value="&lt;font style=&quot;font-size: 19px;&quot;&gt;4,Dellivers&lt;/font&gt;" style="endArrow=none;html=1;rounded=0;exitX=0.5;exitY=0;exitDx=0;exitDy=0;entryX=0.5;entryY=1;entryDx=0;entryDy=0;" parent="1" source="NxfLgQx-L04dx31BgYfz-6" target="NxfLgQx-L04dx31BgYfz-4" edge="1">
          <mxGeometry width="50" height="50" relative="1" as="geometry">
            <mxPoint x="30" y="200" as="sourcePoint" />
            <mxPoint x="80" y="150" as="targetPoint" />
          </mxGeometry>
        </mxCell>
        <mxCell id="NxfLgQx-L04dx31BgYfz-10" value="&lt;font style=&quot;font-size: 18px;&quot;&gt;3,Requests Item&lt;/font&gt;" style="endArrow=none;html=1;rounded=0;entryX=0;entryY=1;entryDx=0;entryDy=0;exitX=1;exitY=0;exitDx=0;exitDy=0;textDirection=ltr;" parent="1" source="NxfLgQx-L04dx31BgYfz-6" target="NxfLgQx-L04dx31BgYfz-1" edge="1">
          <mxGeometry x="-0.5159" y="14" width="50" height="50" relative="1" as="geometry">
            <mxPoint x="320" y="190" as="sourcePoint" />
            <mxPoint x="370" y="140" as="targetPoint" />
            <mxPoint as="offset" />
          </mxGeometry>
        </mxCell>
        <mxCell id="NxfLgQx-L04dx31BgYfz-11" value="&lt;font style=&quot;font-size: 18px;&quot;&gt;1,Orders&lt;/font&gt;" style="endArrow=none;html=1;rounded=0;entryX=1;entryY=1;entryDx=0;entryDy=0;exitX=0;exitY=0;exitDx=0;exitDy=0;" parent="1" edge="1">
          <mxGeometry x="0.6048" y="-8" width="50" height="50" relative="1" as="geometry">
            <mxPoint x="599" y="400" as="sourcePoint" />
            <mxPoint x="159" y="160" as="targetPoint" />
            <mxPoint as="offset" />
          </mxGeometry>
        </mxCell>
        <mxCell id="NxfLgQx-L04dx31BgYfz-13" value="&lt;font style=&quot;font-size: 18px;&quot;&gt;5, Customer Pays&lt;/font&gt;" style="endArrow=none;html=1;rounded=0;entryX=1;entryY=0.75;entryDx=0;entryDy=0;exitX=0.5;exitY=0;exitDx=0;exitDy=0;" parent="1" source="NxfLgQx-L04dx31BgYfz-8" target="NxfLgQx-L04dx31BgYfz-4" edge="1">
          <mxGeometry x="-0.5378" y="-34" width="50" height="50" relative="1" as="geometry">
            <mxPoint x="410" y="270" as="sourcePoint" />
            <mxPoint x="460" y="220" as="targetPoint" />
            <mxPoint as="offset" />
          </mxGeometry>
        </mxCell>
      </root>
    </mxGraphModel>
  </diagram>
</mxfile>
